<mxfile host="app.diagrams.net" modified="2022-06-29T21:19:22.590Z" agent="5.0 (Macintosh; Intel Mac OS X 10_15_7) AppleWebKit/537.36 (KHTML, like Gecko) Chrome/102.0.0.0 Safari/537.36" etag="rZznwfuuWiE-884THBJM" version="20.0.4" type="github">
  <diagram id="ASuHDubMnPTNVnrpVtsa" name="Page-1">
    <mxGraphModel dx="764" dy="514" grid="1" gridSize="10" guides="1" tooltips="1" connect="1" arrows="1" fold="1" page="1" pageScale="1" pageWidth="850" pageHeight="1100" math="0" shadow="0">
      <root>
        <mxCell id="0" />
        <mxCell id="1" parent="0" />
        <mxCell id="IEuggtC6xTEkA-nXw29r-2" value="LAYER 1&lt;br&gt;app.R" style="text;html=1;strokeColor=#666666;fillColor=#f5f5f5;align=center;verticalAlign=middle;whiteSpace=wrap;rounded=0;strokeWidth=2;fontColor=#333333;" parent="1" vertex="1">
          <mxGeometry x="120" y="300" width="120" height="50" as="geometry" />
        </mxCell>
        <mxCell id="IEuggtC6xTEkA-nXw29r-3" value="&lt;font style=&quot;font-size: 11px;&quot;&gt;OdapesDataview.R&lt;/font&gt;" style="text;html=1;strokeColor=#b85450;fillColor=#f8cecc;align=center;verticalAlign=middle;whiteSpace=wrap;rounded=0;strokeWidth=2;" parent="1" vertex="1">
          <mxGeometry x="390" y="320" width="120" height="30" as="geometry" />
        </mxCell>
        <mxCell id="IEuggtC6xTEkA-nXw29r-4" value="&lt;font style=&quot;font-size: 11px;&quot;&gt;OdapesMapview.R&lt;/font&gt;" style="text;html=1;strokeColor=#b85450;fillColor=#f8cecc;align=center;verticalAlign=middle;whiteSpace=wrap;rounded=0;strokeWidth=2;" parent="1" vertex="1">
          <mxGeometry x="260" y="320" width="120" height="30" as="geometry" />
        </mxCell>
        <mxCell id="IEuggtC6xTEkA-nXw29r-5" value="&lt;font style=&quot;font-size: 11px;&quot;&gt;OdapesSetting.R&lt;/font&gt;" style="text;html=1;strokeColor=#b85450;fillColor=#f8cecc;align=center;verticalAlign=middle;whiteSpace=wrap;rounded=0;strokeWidth=2;" parent="1" vertex="1">
          <mxGeometry x="650" y="320" width="120" height="30" as="geometry" />
        </mxCell>
        <mxCell id="IEuggtC6xTEkA-nXw29r-6" value="OdapesDashboard.R" style="text;html=1;strokeColor=#b85450;fillColor=#f8cecc;align=center;verticalAlign=middle;whiteSpace=wrap;rounded=0;strokeWidth=2;" parent="1" vertex="1">
          <mxGeometry x="520" y="320" width="120" height="30" as="geometry" />
        </mxCell>
        <mxCell id="IEuggtC6xTEkA-nXw29r-7" value="&lt;font style=&quot;font-size: 11px;&quot;&gt;OdapesAdmin.R&lt;/font&gt;" style="text;html=1;strokeColor=#b85450;fillColor=#f8cecc;align=center;verticalAlign=middle;whiteSpace=wrap;rounded=0;strokeWidth=2;" parent="1" vertex="1">
          <mxGeometry x="780" y="320" width="120" height="30" as="geometry" />
        </mxCell>
        <mxCell id="IEuggtC6xTEkA-nXw29r-9" value="&lt;font style=&quot;font-size: 11px;&quot;&gt;ods_fieldmanager.R&lt;/font&gt;" style="text;html=1;strokeColor=#b85450;fillColor=#f8cecc;align=center;verticalAlign=middle;whiteSpace=wrap;rounded=0;strokeWidth=2;" parent="1" vertex="1">
          <mxGeometry x="120" y="400" width="120" height="30" as="geometry" />
        </mxCell>
        <mxCell id="IEuggtC6xTEkA-nXw29r-10" value="&lt;font style=&quot;font-size: 11px;&quot;&gt;ods_communication.R&lt;/font&gt;" style="text;html=1;strokeColor=#b85450;fillColor=#f8cecc;align=center;verticalAlign=middle;whiteSpace=wrap;rounded=0;strokeWidth=2;" parent="1" vertex="1">
          <mxGeometry x="120" y="360" width="120" height="30" as="geometry" />
        </mxCell>
        <mxCell id="IEuggtC6xTEkA-nXw29r-11" value="&lt;font style=&quot;font-size: 11px;&quot;&gt;ods_data_import.R&lt;/font&gt;" style="text;html=1;strokeColor=#82b366;fillColor=#d5e8d4;align=center;verticalAlign=middle;whiteSpace=wrap;rounded=0;strokeWidth=2;" parent="1" vertex="1">
          <mxGeometry x="120" y="440" width="120" height="30" as="geometry" />
        </mxCell>
        <mxCell id="IEuggtC6xTEkA-nXw29r-12" value="&lt;font style=&quot;font-size: 11px;&quot;&gt;ods_data_store.R&lt;/font&gt;" style="text;html=1;strokeColor=#82b366;fillColor=#d5e8d4;align=center;verticalAlign=middle;whiteSpace=wrap;rounded=0;strokeWidth=2;" parent="1" vertex="1">
          <mxGeometry x="120" y="480" width="120" height="30" as="geometry" />
        </mxCell>
        <mxCell id="IEuggtC6xTEkA-nXw29r-13" value="&lt;font style=&quot;font-size: 11px;&quot;&gt;ods_menu.R&lt;/font&gt;" style="text;html=1;strokeColor=#82b366;fillColor=#d5e8d4;align=center;verticalAlign=middle;whiteSpace=wrap;rounded=0;strokeWidth=2;" parent="1" vertex="1">
          <mxGeometry x="120" y="520" width="120" height="30" as="geometry" />
        </mxCell>
        <mxCell id="IEuggtC6xTEkA-nXw29r-14" value="&lt;font style=&quot;font-size: 11px;&quot;&gt;ods_algorithm.R&lt;/font&gt;" style="text;html=1;strokeColor=#b85450;fillColor=#f8cecc;align=center;verticalAlign=middle;whiteSpace=wrap;rounded=0;strokeWidth=2;" parent="1" vertex="1">
          <mxGeometry x="120" y="560" width="120" height="30" as="geometry" />
        </mxCell>
        <mxCell id="IEuggtC6xTEkA-nXw29r-15" value="&lt;font style=&quot;font-size: 11px;&quot;&gt;ods_fieldtracker.R&lt;/font&gt;" style="text;html=1;strokeColor=#b85450;fillColor=#f8cecc;align=center;verticalAlign=middle;whiteSpace=wrap;rounded=0;strokeWidth=2;" parent="1" vertex="1">
          <mxGeometry x="120" y="600" width="120" height="30" as="geometry" />
        </mxCell>
        <mxCell id="IEuggtC6xTEkA-nXw29r-16" value="&lt;font style=&quot;font-size: 11px;&quot;&gt;ods_map_add.R&lt;/font&gt;" style="text;html=1;strokeColor=#6c8ebf;fillColor=#dae8fc;align=center;verticalAlign=middle;whiteSpace=wrap;rounded=0;strokeWidth=2;" parent="1" vertex="1">
          <mxGeometry x="120" y="640" width="120" height="30" as="geometry" />
        </mxCell>
        <mxCell id="IEuggtC6xTEkA-nXw29r-17" value="&lt;font style=&quot;font-size: 11px;&quot;&gt;ods_data_add.R&lt;/font&gt;" style="text;html=1;strokeColor=#6c8ebf;fillColor=#dae8fc;align=center;verticalAlign=middle;whiteSpace=wrap;rounded=0;strokeWidth=2;" parent="1" vertex="1">
          <mxGeometry x="120" y="680" width="120" height="30" as="geometry" />
        </mxCell>
        <mxCell id="2T3_qidgmJ5246MT4E5Y-2" value="" style="shape=crossbar;whiteSpace=wrap;html=1;rounded=1;fontSize=11;strokeWidth=2;fillColor=#f5f5f5;strokeColor=#666666;fontColor=#333333;" vertex="1" parent="1">
          <mxGeometry x="260" y="300" width="640" height="20" as="geometry" />
        </mxCell>
        <mxCell id="2T3_qidgmJ5246MT4E5Y-3" value="LAYER 2 MODULES" style="text;html=1;align=center;verticalAlign=middle;resizable=0;points=[];autosize=1;strokeColor=none;fillColor=none;fontSize=15;fontColor=#000000;" vertex="1" parent="1">
          <mxGeometry x="495" y="280" width="160" height="30" as="geometry" />
        </mxCell>
        <mxCell id="2T3_qidgmJ5246MT4E5Y-6" value="" style="shape=crossbar;whiteSpace=wrap;html=1;rounded=1;direction=south;fontSize=15;strokeWidth=2;fillColor=#f5f5f5;strokeColor=#666666;fontColor=#333333;" vertex="1" parent="1">
          <mxGeometry x="100" y="360" width="20" height="350" as="geometry" />
        </mxCell>
        <mxCell id="2T3_qidgmJ5246MT4E5Y-8" value="LAYER 3 MODULES" style="text;html=1;align=center;verticalAlign=middle;resizable=0;points=[];autosize=1;strokeColor=none;fillColor=none;fontSize=15;fontColor=#000000;rotation=-90;" vertex="1" parent="1">
          <mxGeometry x="10" y="490" width="160" height="30" as="geometry" />
        </mxCell>
        <mxCell id="2T3_qidgmJ5246MT4E5Y-18" value="Legend" style="swimlane;fontStyle=0;childLayout=stackLayout;horizontal=1;startSize=30;horizontalStack=0;resizeParent=1;resizeParentMax=0;resizeLast=0;collapsible=1;marginBottom=0;fontSize=15;fontColor=#000000;strokeWidth=2;" vertex="1" parent="1">
          <mxGeometry x="750" y="390" width="140" height="120" as="geometry" />
        </mxCell>
        <mxCell id="2T3_qidgmJ5246MT4E5Y-19" value="Module with UI" style="text;strokeColor=none;fillColor=none;align=left;verticalAlign=middle;spacingLeft=4;spacingRight=4;overflow=hidden;points=[[0,0.5],[1,0.5]];portConstraint=eastwest;rotatable=0;fontSize=15;fontColor=#000000;labelBackgroundColor=#EA6B66;" vertex="1" parent="2T3_qidgmJ5246MT4E5Y-18">
          <mxGeometry y="30" width="140" height="30" as="geometry" />
        </mxCell>
        <mxCell id="2T3_qidgmJ5246MT4E5Y-20" value="Module without UI" style="text;strokeColor=none;fillColor=none;align=left;verticalAlign=middle;spacingLeft=4;spacingRight=4;overflow=hidden;points=[[0,0.5],[1,0.5]];portConstraint=eastwest;rotatable=0;fontSize=15;fontColor=#000000;labelBackgroundColor=#7EA6E0;" vertex="1" parent="2T3_qidgmJ5246MT4E5Y-18">
          <mxGeometry y="60" width="140" height="30" as="geometry" />
        </mxCell>
        <mxCell id="2T3_qidgmJ5246MT4E5Y-21" value="Function" style="text;strokeColor=none;fillColor=none;align=left;verticalAlign=middle;spacingLeft=4;spacingRight=4;overflow=hidden;points=[[0,0.5],[1,0.5]];portConstraint=eastwest;rotatable=0;fontSize=15;fontColor=#000000;labelBackgroundColor=#97D077;" vertex="1" parent="2T3_qidgmJ5246MT4E5Y-18">
          <mxGeometry y="90" width="140" height="30" as="geometry" />
        </mxCell>
        <mxCell id="2T3_qidgmJ5246MT4E5Y-22" value="&lt;h1 style=&quot;font-size: 17px;&quot;&gt;&lt;br style=&quot;font-size: 17px;&quot;&gt;&lt;/h1&gt;&lt;p style=&quot;font-size: 17px;&quot;&gt;Any Layer 2 and Layer 3 Interactions are possible, but not necessary&lt;/p&gt;" style="text;html=1;strokeColor=none;fillColor=none;spacing=5;spacingTop=-20;whiteSpace=wrap;overflow=hidden;rounded=0;labelBackgroundColor=none;fontSize=17;fontColor=#000000;" vertex="1" parent="1">
          <mxGeometry x="375" y="435" width="375" height="120" as="geometry" />
        </mxCell>
      </root>
    </mxGraphModel>
  </diagram>
</mxfile>
